<svg width="27" height="36" viewBox="0 0 27 36" fill="none" xmlns="http://www.w3.org/2000/svg">
<path d="M26.305 28.2798C25.4843 27.6294 25.8036 26.1929 24.9516 25.4842C25.7768 20.5769 23.4638 16.2515 20.7061 13.4792C18.3916 11.1531 19.1378 8.88979 19.1378 6.93125C19.1378 3.80167 17.8231 0.5 13.8403 0.5C9.5829 0.5 8.41597 3.97083 8.37418 5.95125C8.27271 10.7083 9.35758 11.945 6.50887 15.4071C3.15729 19.4802 2.66335 23.5431 3.41992 25.6985C3.06626 26.101 2.58874 26.5473 1.69637 26.9163C-0.768819 27.9663 1.03829 29.7235 0.356336 30.9704C0.162343 31.3248 0.0698242 31.6952 0.0698242 32.0496C0.0698242 33.1433 0.959204 34.0898 2.57531 33.9483C4.75548 33.7588 6.76703 35.2681 8.06827 35.2681C9.2173 35.2681 10.1604 34.6294 10.5991 33.75C12.654 33.2556 15.1908 33.3183 17.2441 33.836C17.6127 34.8438 18.6125 35.5 19.7242 35.5C22.1581 35.5 22.6266 32.8035 25.4186 31.8906C26.4244 31.5625 26.9303 30.6088 26.9303 29.7206C26.9303 29.1519 26.7229 28.6108 26.305 28.2798ZM12.6554 13.0183C12.1794 13.0183 11.7855 12.6421 11.1632 12.19C10.3753 11.6183 9.57395 11.2888 9.58291 10.6879C9.58291 10.2752 10.1485 10.1483 10.8797 9.69479C11.6646 9.20917 11.9705 8.71625 12.7435 8.71625C13.5344 8.71625 13.7731 9.10708 14.8476 9.56063C15.9041 10.0083 16.6397 10.1833 16.6397 10.6879C16.6397 11.2056 15.534 11.576 14.9117 11.9538C13.997 12.505 13.5269 13.0183 12.6554 13.0183ZM15.14 5.41313C16.4562 5.61875 16.6039 7.87917 15.9742 8.99187L15.4445 8.78042C15.719 7.98854 15.7146 6.68479 14.7953 6.60167C14.2119 6.54917 13.8358 7.30167 13.7552 7.94625C13.5269 7.85292 13.2777 7.78583 12.9748 7.76104C13.0673 6.415 13.9567 5.22792 15.14 5.41313ZM10.0619 5.89583C11.0707 5.65083 11.6661 6.79708 11.6706 7.98854L11.208 8.26562C11.1453 7.76542 10.917 6.9575 10.344 7.12958C9.73064 7.31625 9.83062 8.70896 10.1723 8.99479L9.71572 9.24271C9.08897 8.21167 9.09046 6.13208 10.0619 5.89583ZM6.90581 33.9585C3.97653 32.6563 2.9812 32.9523 2.42161 32.9523C1.26213 32.9523 0.883099 32.1079 1.31884 31.3088C1.68891 30.6306 1.57401 29.9204 1.48298 29.3502C1.34271 28.4767 1.31734 28.1923 2.19628 27.816C3.41246 27.3115 3.95265 26.6625 4.35556 26.1769C5.48668 24.8104 6.62825 26.96 7.56389 28.8748C8.17124 30.1158 9.36653 30.7444 9.73512 32.1196C10.0739 33.3898 8.67562 34.746 6.90581 33.9585ZM17.3321 31.2256C15.2669 32.2071 12.636 32.6577 10.6678 31.6617C10.3768 30.8406 9.9112 30.3098 9.4098 29.776C10.2141 29.569 10.811 28.589 10.0962 27.6046C9.3337 26.5531 7.77579 25.8196 6.20147 24.6296C4.72862 23.5169 4.26304 20.7738 6.26862 17.7083C5.2912 20.4237 5.86273 22.9263 6.35368 23.6423C6.45515 22.2015 6.57155 19.7952 8.58608 16.9121C9.6023 15.4567 9.61723 13.5346 9.63961 12.3329L10.5648 12.9513C11.2453 13.4427 11.8153 13.9838 12.6331 13.9838C13.8418 13.9838 14.5103 13.3042 15.4415 12.7398C15.8056 12.521 16.3562 12.2994 16.8188 11.9917C17.5948 15.6025 20.8091 19.9454 20.9896 22.4188C21.7373 20.9137 20.7778 17.2942 20.7778 17.2942C22.0342 19.1681 22.1342 20.73 22.1894 22.6462C23.0684 22.9977 24.0115 23.9135 24.098 25.1196L23.7324 25.0788C23.5444 23.7385 19.8421 21.7698 19.5093 24.2927C17.7336 24.5567 18.3797 27.3056 18.0216 29.0877C17.8574 29.9029 17.553 30.5475 17.3321 31.2256ZM24.5636 31.1658C23.0937 31.72 22.1014 32.8969 21.4194 33.6275C20.1062 35.0363 18.3693 34.361 18.1842 33.0427C17.9887 31.634 18.7214 30.8654 19.0378 29.289C19.3258 27.8496 19.0035 25.6344 19.6809 25.3981C20.1212 27.9546 22.7639 26.8798 23.3668 26.1827C24.3472 26.1827 24.4293 26.5065 24.6486 27.4033C24.7859 27.9648 24.9754 28.4373 25.5112 28.9929C26.1349 29.6448 25.9439 30.6452 24.5636 31.1658ZM12.6256 12.1988C11.6541 12.1988 10.9274 11.5673 10.3365 11.0773C10.0336 10.8279 10.4111 10.3671 10.714 10.6179C11.2915 11.0963 11.8735 11.6023 12.6256 11.6023C13.5314 11.6023 14.3297 10.8454 15.4116 10.4283C15.7802 10.2869 15.9906 10.844 15.625 10.9854C14.5745 11.3894 13.7314 12.1988 12.6256 12.1988Z" fill="#F0F2E2"/>
</svg>
